<svg width="915" height="915" viewBox="0 0 915 915" fill="none" xmlns="http://www.w3.org/2000/svg">
<rect width="915" height="915" fill="#1E1E1E"/>
<rect width="915" height="915" rx="35" fill="#1C0D31"/>
<rect x="30" y="30" width="854" height="854" rx="25" fill="#D9D9D9"/>
<rect x="36" y="36" width="843" height="843" rx="20" fill="#1C0D31"/>
<g clip-path="url(#clip0_0_1)">
<path d="M463.769 60.7708C465.946 57.6634 466.256 68.1926 467.202 104.965C467.774 127.198 468.246 160.34 468.25 178.614C468.254 196.889 468.971 223.539 469.845 237.837C470.718 252.135 472.537 273.76 473.888 285.892C475.24 298.024 477.709 315.041 479.375 323.706C481.041 332.372 484.09 344.779 486.152 351.279C488.214 357.778 490.395 364.267 490.998 365.698C491.859 367.742 488.952 370.15 477.411 376.948C469.335 381.706 458.119 388.969 452.486 393.088C446.853 397.208 436.928 405.21 430.429 410.87C423.929 416.531 414.181 425.447 408.764 430.685C403.348 435.922 398.917 439.647 398.917 438.962C398.917 438.277 402.042 429.08 405.861 418.525C409.681 407.97 414.742 392.244 417.108 383.578C419.474 374.913 423.385 359.319 425.799 348.926C428.212 338.533 430 329.844 429.773 329.616C429.545 329.39 419.131 339.665 406.631 352.451C394.129 365.238 377.988 382.791 370.762 391.456C363.535 400.122 352.3 414.302 345.795 422.968C339.289 431.634 328.808 446.523 322.504 456.055C316.199 465.587 305.902 482.573 299.622 493.802C293.341 505.031 284.668 522.047 280.348 531.616C276.027 541.185 269.432 558.232 265.691 569.497C261.951 580.763 257.721 595.652 256.293 602.584C254.865 609.517 253.32 621.924 252.861 630.156C252.398 638.457 252.808 649.336 253.783 654.578C254.749 659.778 257.691 668.423 260.321 673.79C263.102 679.467 267.551 685.487 270.956 688.182C274.175 690.73 279.645 694.001 283.111 695.451C286.577 696.902 293.825 698.503 299.216 699.009C304.607 699.515 314.52 699.045 321.246 697.957C327.972 696.872 339.513 693.852 346.894 691.247C354.275 688.642 367.362 682.975 375.975 678.653C384.589 674.33 396.111 667.968 401.579 664.514C410.84 658.665 411.521 657.84 411.507 652.468C411.501 649.296 410.439 637.129 409.154 625.43C407.869 613.731 405.264 596.126 403.366 586.307L399.915 568.453L405.324 564.249C408.299 561.937 417.823 553.922 426.489 546.439C435.155 538.956 446.873 527.966 452.528 522.017C458.184 516.068 465.555 508.01 468.908 504.111C472.261 500.211 474.499 498.438 473.883 500.171C473.266 501.904 470.347 511.476 467.397 521.442C464.447 531.407 459.859 549.133 457.202 560.831C454.545 572.53 450.67 591.319 448.59 602.584C446.51 613.85 443.013 635.829 440.818 651.427C438.624 667.025 435.772 689.714 434.481 701.846C433.191 713.978 430.678 739.502 428.898 758.567C427.118 777.631 424.735 803.565 423.6 816.196C422.2 831.785 420.738 850.883 419.047 853.298C416.556 856.855 416.556 846.273 415.798 841.81C415.381 839.354 414.939 813.28 414.816 783.867C414.693 754.456 414.35 730.149 414.054 729.851C413.759 729.555 407.661 732.945 400.504 737.384C393.346 741.823 378.425 750.004 367.346 755.564C356.267 761.123 338.809 768.474 328.55 771.899C318.29 775.324 303.599 779.22 295.903 780.557C288.207 781.894 277.525 782.989 272.165 782.989C266.805 782.988 258.213 782.22 253.071 781.281C247.929 780.341 239.297 777.473 233.889 774.906C228.362 772.281 220.699 766.826 216.386 762.445C212.167 758.158 206.569 750.215 203.946 744.792C201.323 739.37 198.21 731.034 197.028 726.268C195.67 720.793 194.925 709.188 195.006 694.756C195.102 677.462 195.99 667.89 198.659 655.366C200.598 646.267 205.044 630.035 208.537 619.294C212.03 608.554 218.403 591.537 222.699 581.48C226.995 571.423 235.331 553.977 241.224 542.712C247.117 531.447 256.024 515.495 261.017 507.262C266.011 499.03 276.827 482.381 285.053 470.267C293.279 458.152 305.769 440.782 312.809 431.665C319.849 422.549 332.306 407.29 340.491 397.758C348.676 388.226 363.068 372.172 372.473 362.083C381.879 351.994 399.807 334.368 412.313 322.914C424.82 311.46 435.412 300.926 435.85 299.505C436.289 298.083 438.778 282.032 441.383 263.834C443.987 245.636 447.167 220.821 448.449 208.689C449.731 196.557 452.236 171.033 454.016 151.968C455.796 132.903 458.18 106.97 459.314 94.3391C460.67 79.2476 462.197 63.0161 463.769 60.7708ZM643.835 194.77C649.195 194.77 657.788 195.539 662.929 196.478C668.071 197.417 676.703 200.286 682.11 202.854C687.638 205.478 695.302 210.934 699.614 215.315C703.833 219.601 709.431 227.544 712.054 232.966C714.676 238.389 717.789 246.725 718.971 251.491C720.329 256.966 721.074 268.571 720.994 283.003C720.897 300.297 720.01 309.869 717.341 322.393C715.401 331.492 710.956 347.724 707.463 358.464C703.969 369.205 697.597 386.222 693.302 396.279C689.006 406.336 680.589 423.9 674.597 435.31C668.606 446.72 659.692 462.672 654.79 470.76C649.887 478.848 639.456 494.97 631.609 506.586C623.762 518.203 610.988 535.928 603.224 545.976C595.46 556.024 580.879 573.801 570.821 585.482C560.763 597.162 541.899 617.377 528.9 630.403C515.902 643.428 497.821 660.496 488.722 668.331C479.623 676.167 467.137 686.617 460.975 691.555C454.814 696.492 449.319 700.532 448.764 700.532C448.21 700.532 447.763 698.582 447.768 696.199C447.773 693.816 448.845 679.813 450.15 665.081C451.455 650.35 453.1 634.683 453.806 630.268C454.895 623.463 456.153 621.322 462.06 616.22C465.894 612.909 481.81 597.379 497.429 581.708C513.048 566.037 534.032 542.935 544.059 530.369C554.087 517.804 567.362 500.353 573.559 491.588C579.757 482.824 590.481 466.236 597.39 454.727C604.3 443.218 614.507 424.51 620.071 413.154C625.636 401.797 632.721 385.693 635.815 377.366C638.91 369.04 643.262 355.944 645.487 348.265C647.712 340.586 650.571 327.901 651.841 320.076C653.11 312.251 654.141 300.886 654.132 294.82C654.12 288.754 653.043 279.243 651.733 273.686C650.423 268.128 647.435 260.06 645.093 255.757C642.75 251.454 637.808 245.622 634.109 242.798C630.318 239.903 622.915 236.453 617.139 234.89C609.474 232.815 603.821 232.356 594.683 233.067C587.967 233.589 576.091 235.841 568.292 238.07C560.493 240.299 544.185 247.016 532.054 252.997C519.922 258.979 504.115 267.822 496.929 272.65C489.744 277.477 483.54 281.427 483.143 281.427C482.747 281.425 482.432 276.994 482.443 271.579L482.461 261.733L492.363 255.156C497.81 251.54 508.048 244.994 515.114 240.612C522.18 236.229 537.222 227.994 548.539 222.312C559.856 216.63 577.438 209.203 587.609 205.807C597.781 202.411 612.4 198.539 620.096 197.201C627.792 195.864 638.475 194.77 643.835 194.77ZM520.051 378.478C522.484 378.478 525.649 379.775 527.083 381.36C528.517 382.944 529.69 386.473 529.69 389.201C529.69 391.93 528.013 398.609 525.964 404.045C523.914 409.481 518.552 420.161 514.049 427.778C509.545 435.394 500.671 448.511 494.328 456.926C487.985 465.341 477.237 478.606 470.443 486.406C463.649 494.205 450.98 507.628 442.29 516.235C433.6 524.841 420.108 537.2 412.309 543.698C404.51 550.197 392.413 559.244 385.427 563.801C378.44 568.358 369.02 573.547 364.492 575.332C359.964 577.117 354.268 578.577 351.835 578.577C349.401 578.577 346.238 577.28 344.804 575.696C343.369 574.111 342.196 570.582 342.196 567.854C342.196 565.125 343.873 558.446 345.923 553.01C347.972 547.574 353.333 536.894 357.837 529.278C362.34 521.661 371.215 508.544 377.557 500.129C383.9 491.714 394.648 478.449 401.442 470.65C408.236 462.851 420.905 449.428 429.596 440.822C438.286 432.215 451.778 419.856 459.577 413.357C467.376 406.858 479.472 397.812 486.459 393.254C493.445 388.697 502.867 383.508 507.394 381.723C511.922 379.938 517.617 378.478 520.051 378.478ZM481.754 426.797C480.519 426.323 475.992 427.688 471.693 429.83C467.395 431.972 458.655 438.183 452.273 443.631C445.891 449.08 436.159 458.452 430.647 464.457C425.135 470.463 415.486 482.188 409.205 490.512C402.924 498.836 395.912 509.604 393.624 514.442C391.335 519.279 389.463 524.581 389.463 526.223C389.463 527.865 389.936 529.681 390.513 530.259C391.091 530.837 392.804 531.31 394.32 531.31C395.836 531.31 402.276 527.831 408.632 523.578C414.987 519.326 428.002 507.804 437.553 497.975C447.103 488.145 459.06 474.553 464.124 467.77C469.187 460.986 475.73 450.832 478.664 445.203C481.597 439.575 483.998 433.326 483.998 431.315C483.998 429.304 482.988 427.271 481.754 426.797Z" fill="white"/>
</g>
<defs>
<clipPath id="clip0_0_1">
<rect width="526" height="795" fill="white" transform="translate(195 60)"/>
</clipPath>
</defs>
</svg>
